<svg width="150" height="81" viewBox="0 0 195 81" fill="none" xmlns="http://www.w3.org/2000/svg">
<path d="M36.7012 58H13.1821V23.6904H36.7012V30.5571H20.0488V37.4238H31.3179V44.2905H20.0488V51.1333H36.7012V58ZM48.867 30.5571V44.2905H55.7337C56.6747 44.2905 57.56 44.1151 58.3894 43.7642C59.2188 43.3973 59.9446 42.9028 60.5667 42.2808C61.1887 41.6587 61.6752 40.9329 62.0261 40.1035C62.393 39.2581 62.5764 38.3649 62.5764 37.4238C62.5764 36.4827 62.393 35.5975 62.0261 34.7681C61.6752 33.9227 61.1887 33.189 60.5667 32.5669C59.9446 31.9448 59.2188 31.4583 58.3894 31.1074C57.56 30.7406 56.6747 30.5571 55.7337 30.5571H48.867ZM48.867 58H42.0003V23.6904H55.7337C56.9937 23.6904 58.206 23.8579 59.3704 24.1929C60.5348 24.5119 61.6194 24.9744 62.6243 25.5806C63.6451 26.1707 64.5702 26.8885 65.3997 27.7339C66.245 28.5633 66.9628 29.4884 67.553 30.5093C68.1591 31.5301 68.6217 32.6227 68.9407 33.7871C69.2756 34.9515 69.4431 36.1637 69.4431 37.4238C69.4431 39.306 69.0842 41.0845 68.3665 42.7593C67.6487 44.4181 66.6677 45.8696 65.4236 47.1138C64.1795 48.3579 62.72 49.3389 61.0452 50.0566C59.3863 50.7744 57.6158 51.1333 55.7337 51.1333H48.867V58ZM80.8433 58H73.9766V23.6904H80.8433V58ZM94.5882 58H87.7215V23.6904H111.743V30.5571H94.5882V37.4238H104.876V44.2905H94.5882V58ZM139.795 58H115.774V23.6904H122.641V51.1333H139.795V58ZM150.741 58H143.874V23.6904H150.741V58ZM184.273 58H175.946L169.343 46.9224L162.715 58H154.437L164.964 40.8452L154.437 23.6904H162.715L169.343 34.7681L175.946 23.6904H184.273L173.745 40.8452L184.273 58Z" fill="#D9232E"/>
</svg>
